<?xml version="1.0" encoding="UTF-8" standalone="no"?>
<!-- Created with Inkscape (http://www.inkscape.org/) -->
<svg
   xmlns:dc="http://purl.org/dc/elements/1.1/"
   xmlns:cc="http://web.resource.org/cc/"
   xmlns:rdf="http://www.w3.org/1999/02/22-rdf-syntax-ns#"
   xmlns:svg="http://www.w3.org/2000/svg"
   xmlns="http://www.w3.org/2000/svg"
   xmlns:sodipodi="http://sodipodi.sourceforge.net/DTD/sodipodi-0.dtd"
   xmlns:inkscape="http://www.inkscape.org/namespaces/inkscape"
   width="655"
   height="511"
   id="svg2"
   sodipodi:version="0.32"
   inkscape:version="0.45.1"
   sodipodi:docbase="C:\Documents and Settings\Administrator.NETCOMP\Desktop"
   sodipodi:docname="FunDraw_dot_com_Mess_With_This_Bear.svg"
   inkscape:output_extension="org.inkscape.output.svg.inkscape"
   version="1.0">
  <defs
     id="defs4">
    <pattern
       patternUnits="userSpaceOnUse"
       width="92.031963"
       height="33.844463"
       patternTransform="translate(-409.57848,189.04652)"
       id="pattern4165">
      <path
         id="path4154"
         d="M 34.515981,1.2659813 L 34.484731,10.953481 L 29.390981,12.265981 L 25.734731,11.328481 L 25.734731,11.297231 L 25.672231,11.297231 L 20.047231,9.8597313 L 20.984731,12.515981 L 16.390981,13.703481 L 7.0159813,11.297231 L 8.8284813,16.390981 L 1.2659813,20.015981 L 11.703481,20.765981 L 16.390981,25.390981 L 21.047231,20.765981 L 25.828481,20.422231 L 29.390981,23.953481 L 32.172231,21.172231 L 49.609731,23.953481 L 43.984731,32.578481 L 60.672231,21.297231 L 62.640981,23.234731 L 60.515981,24.234731 L 70.953481,24.984731 L 75.640981,29.609731 L 80.297231,24.984731 L 90.765981,24.234731 L 83.203481,20.609731 L 84.984731,15.515981 L 77.109731,17.547231 L 70.203481,14.234731 L 71.984731,9.1409813 L 62.640981,11.547231 L 60.734731,11.047231 L 58.953481,9.8597313 L 73.859731,4.4847313 L 40.265981,9.8597313 L 34.515981,1.2659813 z M 66.672231,19.234731 L 67.734731,19.609731 L 68.078481,20.609731 L 62.672231,23.203481 L 66.672231,19.234731 z "
         style="opacity:1;fill:#502d16;fill-opacity:0.85;fill-rule:evenodd;stroke:#000000;stroke-width:2.53196263;stroke-linecap:round;stroke-linejoin:round;stroke-miterlimit:4;stroke-dasharray:none;stroke-dashoffset:0;stroke-opacity:1" />
    </pattern>
  </defs>
  <sodipodi:namedview
     id="base"
     pagecolor="#ffffff"
     bordercolor="#666666"
     borderopacity="1.0"
     gridtolerance="10000"
     guidetolerance="10"
     objecttolerance="10"
     inkscape:pageopacity="0.0"
     inkscape:pageshadow="2"
     inkscape:zoom="0.7"
     inkscape:cx="281.94091"
     inkscape:cy="348.57143"
     inkscape:document-units="px"
     inkscape:current-layer="layer1"
     inkscape:window-width="1152"
     inkscape:window-height="849"
     inkscape:window-x="0"
     inkscape:window-y="0"
     width="655px"
     height="511px"
     inkscape:showpageshadow="false" />
  <metadata
     id="metadata7">
    <rdf:RDF>
      <cc:Work
         rdf:about="">
        <dc:format>image/svg+xml</dc:format>
        <dc:type
           rdf:resource="http://purl.org/dc/dcmitype/StillImage" />
      </cc:Work>
    </rdf:RDF>
  </metadata>
  <g
     inkscape:label="Layer 1"
     inkscape:groupmode="layer"
     id="layer1"
     transform="translate(-39.721152,-204.5443)">
    <g
       id="g2188"
       transform="translate(1.161285,1.9625061e-2)">
      <g
         transform="matrix(-0.999554,-2.9865564e-2,-2.9865564e-2,0.999554,42.791544,166.169)"
         id="g4801">
        <path
           sodipodi:type="arc"
           style="opacity:1;fill:#ff5555;fill-opacity:1;fill-rule:evenodd;stroke:#000000;stroke-width:12;stroke-linecap:round;stroke-linejoin:round;stroke-miterlimit:4;stroke-dasharray:none;stroke-dashoffset:0;stroke-opacity:1"
           id="path4803"
           sodipodi:cx="-452.85715"
           sodipodi:cy="253.79076"
           sodipodi:rx="120"
           sodipodi:ry="44.285713"
           d="M -332.85715 253.79076 A 120 44.285713 0 1 1  -572.85715,253.79076 A 120 44.285713 0 1 1  -332.85715 253.79076 z"
           transform="matrix(0.9940823,0,0,1.2581587,-2.6798487,-64.80399)" />
        <path
           sodipodi:type="arc"
           style="opacity:1;fill:#ff5555;fill-opacity:1;fill-rule:evenodd;stroke:#000000;stroke-width:12;stroke-linecap:round;stroke-linejoin:round;stroke-miterlimit:4;stroke-dasharray:none;stroke-dashoffset:0;stroke-opacity:1"
           id="path4805"
           sodipodi:cx="-586.42859"
           sodipodi:cy="250.21933"
           sodipodi:rx="50.714287"
           sodipodi:ry="57.857143"
           d="M -535.7143 250.21933 A 50.714287 57.857143 0 1 1  -637.14288,250.21933 A 50.714287 57.857143 0 1 1  -535.7143 250.21933 z" />
        <path
           sodipodi:type="arc"
           style="opacity:1;fill:#ff5555;fill-opacity:1;fill-rule:evenodd;stroke:#000000;stroke-width:12;stroke-linecap:round;stroke-linejoin:round;stroke-miterlimit:4;stroke-dasharray:none;stroke-dashoffset:0;stroke-opacity:1"
           id="path4807"
           sodipodi:cx="-626.42859"
           sodipodi:cy="214.50504"
           sodipodi:rx="25"
           sodipodi:ry="17.857143"
           d="M -601.42859 214.50504 A 25 17.857143 0 1 1  -651.42859,214.50504 A 25 17.857143 0 1 1  -601.42859 214.50504 z"
           transform="translate(2.8571429,1.4285714)" />
        <path
           sodipodi:type="arc"
           style="opacity:1;fill:#ff5555;fill-opacity:1;fill-rule:evenodd;stroke:#000000;stroke-width:12;stroke-linecap:round;stroke-linejoin:round;stroke-miterlimit:4;stroke-dasharray:none;stroke-dashoffset:0;stroke-opacity:1"
           id="path4809"
           sodipodi:cx="-627.85712"
           sodipodi:cy="263.79074"
           sodipodi:rx="26.428572"
           sodipodi:ry="17.142857"
           d="M -601.42854 263.79074 A 26.428572 17.142857 0 1 1  -654.28569,263.79074 A 26.428572 17.142857 0 1 1  -601.42854 263.79074 z"
           transform="matrix(0.9927933,0,0,1.0722229,-1.6676646,-30.480313)" />
        <path
           sodipodi:type="arc"
           style="opacity:1;fill:#ff5555;fill-opacity:1;fill-rule:evenodd;stroke:#000000;stroke-width:12;stroke-linecap:round;stroke-linejoin:round;stroke-miterlimit:4;stroke-dasharray:none;stroke-dashoffset:0;stroke-opacity:1"
           id="path4811"
           sodipodi:cx="-626.42859"
           sodipodi:cy="214.50504"
           sodipodi:rx="25"
           sodipodi:ry="17.857143"
           d="M -601.42859 214.50504 A 25 17.857143 0 1 1  -651.42859,214.50504 A 25 17.857143 0 1 1  -601.42859 214.50504 z"
           transform="translate(13.571446,70.71429)" />
      </g>
      <g
         transform="matrix(0.999554,-2.9865564e-2,2.9865564e-2,0.999554,689.32819,167.63329)"
         id="g4462">
        <path
           sodipodi:type="arc"
           style="opacity:1;fill:#ff5555;fill-opacity:1;fill-rule:evenodd;stroke:#000000;stroke-width:12;stroke-linecap:round;stroke-linejoin:round;stroke-miterlimit:4;stroke-dasharray:none;stroke-dashoffset:0;stroke-opacity:1"
           id="path4441"
           sodipodi:cx="-452.85715"
           sodipodi:cy="253.79076"
           sodipodi:rx="120"
           sodipodi:ry="44.285713"
           d="M -332.85715 253.79076 A 120 44.285713 0 1 1  -572.85715,253.79076 A 120 44.285713 0 1 1  -332.85715 253.79076 z"
           transform="matrix(0.9940823,0,0,1.2581587,-2.6798487,-64.80399)" />
        <path
           sodipodi:type="arc"
           style="opacity:1;fill:#ff5555;fill-opacity:1;fill-rule:evenodd;stroke:#000000;stroke-width:12;stroke-linecap:round;stroke-linejoin:round;stroke-miterlimit:4;stroke-dasharray:none;stroke-dashoffset:0;stroke-opacity:1"
           id="path4443"
           sodipodi:cx="-586.42859"
           sodipodi:cy="250.21933"
           sodipodi:rx="50.714287"
           sodipodi:ry="57.857143"
           d="M -535.7143 250.21933 A 50.714287 57.857143 0 1 1  -637.14288,250.21933 A 50.714287 57.857143 0 1 1  -535.7143 250.21933 z" />
        <path
           sodipodi:type="arc"
           style="opacity:1;fill:#ff5555;fill-opacity:1;fill-rule:evenodd;stroke:#000000;stroke-width:12;stroke-linecap:round;stroke-linejoin:round;stroke-miterlimit:4;stroke-dasharray:none;stroke-dashoffset:0;stroke-opacity:1"
           id="path4447"
           sodipodi:cx="-626.42859"
           sodipodi:cy="214.50504"
           sodipodi:rx="25"
           sodipodi:ry="17.857143"
           d="M -601.42859 214.50504 A 25 17.857143 0 1 1  -651.42859,214.50504 A 25 17.857143 0 1 1  -601.42859 214.50504 z"
           transform="translate(2.8571429,1.4285714)" />
        <path
           sodipodi:type="arc"
           style="opacity:1;fill:#ff5555;fill-opacity:1;fill-rule:evenodd;stroke:#000000;stroke-width:12;stroke-linecap:round;stroke-linejoin:round;stroke-miterlimit:4;stroke-dasharray:none;stroke-dashoffset:0;stroke-opacity:1"
           id="path4449"
           sodipodi:cx="-627.85712"
           sodipodi:cy="263.79074"
           sodipodi:rx="26.428572"
           sodipodi:ry="17.142857"
           d="M -601.42854 263.79074 A 26.428572 17.142857 0 1 1  -654.28569,263.79074 A 26.428572 17.142857 0 1 1  -601.42854 263.79074 z"
           transform="matrix(0.9927933,0,0,1.0722229,-1.6676646,-30.480313)" />
        <path
           sodipodi:type="arc"
           style="opacity:1;fill:#ff5555;fill-opacity:1;fill-rule:evenodd;stroke:#000000;stroke-width:12;stroke-linecap:round;stroke-linejoin:round;stroke-miterlimit:4;stroke-dasharray:none;stroke-dashoffset:0;stroke-opacity:1"
           id="path4451"
           sodipodi:cx="-626.42859"
           sodipodi:cy="214.50504"
           sodipodi:rx="25"
           sodipodi:ry="17.857143"
           d="M -601.42859 214.50504 A 25 17.857143 0 1 1  -651.42859,214.50504 A 25 17.857143 0 1 1  -601.42859 214.50504 z"
           transform="translate(13.571446,70.71429)" />
      </g>
      <path
         transform="matrix(1.0046417,0,0,0.742207,593.90155,283.44873)"
         d="M -48.571426 320.93362 A 176.42857 215.71428 0 1 1  -401.42857,320.93362 A 176.42857 215.71428 0 1 1  -48.571426 320.93362 z"
         sodipodi:ry="215.71428"
         sodipodi:rx="176.42857"
         sodipodi:cy="320.93362"
         sodipodi:cx="-225"
         id="path4439"
         style="fill:#ff5555;fill-opacity:1;fill-rule:evenodd;stroke:#000000;stroke-width:12;stroke-linecap:round;stroke-linejoin:round;stroke-miterlimit:4;stroke-dasharray:none;stroke-dashoffset:0;stroke-opacity:1"
         sodipodi:type="arc" />
      <path
         transform="translate(604.28573,118.57142)"
         d="M -261.42857 518.79077 A 77.85714 72.14286 0 1 1  -417.14285,518.79077 A 77.85714 72.14286 0 1 1  -261.42857 518.79077 z"
         sodipodi:ry="72.14286"
         sodipodi:rx="77.85714"
         sodipodi:cy="518.79077"
         sodipodi:cx="-339.28571"
         id="path4481"
         style="fill:#ff5555;fill-opacity:1;fill-rule:evenodd;stroke:#000000;stroke-width:12;stroke-linecap:round;stroke-linejoin:round;stroke-miterlimit:4;stroke-dasharray:none;stroke-dashoffset:0;stroke-opacity:1"
         sodipodi:type="arc" />
      <path
         transform="translate(805.00001,116.42855)"
         d="M -261.42857 518.79077 A 77.85714 72.14286 0 1 1  -417.14285,518.79077 A 77.85714 72.14286 0 1 1  -261.42857 518.79077 z"
         sodipodi:ry="72.14286"
         sodipodi:rx="77.85714"
         sodipodi:cy="518.79077"
         sodipodi:cx="-339.28571"
         id="path4487"
         style="fill:#ff5555;fill-opacity:1;fill-rule:evenodd;stroke:#000000;stroke-width:12;stroke-linecap:round;stroke-linejoin:round;stroke-miterlimit:4;stroke-dasharray:none;stroke-dashoffset:0;stroke-opacity:1"
         sodipodi:type="arc" />
      <g
         transform="matrix(1.207208,0,0,1,-42.025899,42.857143)"
         id="g4771">
        <path
           style="opacity:1;fill:#ff5555;fill-opacity:1;fill-rule:evenodd;stroke:#000000;stroke-width:8.14612198;stroke-linecap:round;stroke-linejoin:round;stroke-miterlimit:4;stroke-dasharray:none;stroke-dashoffset:0;stroke-opacity:1"
           d="M 339.73954,166.16235 C 311.49051,166.16235 286.14509,177.99047 268.93398,196.72726 C 264.09799,187.19215 254.27939,180.65159 242.95634,180.6516 C 226.85002,180.6516 213.78735,193.87921 213.78734,210.1589 C 213.78734,226.43859 226.85002,239.64506 242.95634,239.64505 C 244.45903,239.64505 245.93998,239.52839 247.38169,239.30662 C 246.40985,244.4367 245.89239,249.7134 245.89239,255.1073 C 245.89239,264.31467 247.36133,273.21357 250.10498,281.56869 C 242.44298,294.88212 238.10548,310.05828 238.10548,326.17865 C 238.10548,378.75404 284.29857,421.42693 341.20756,421.42695 C 398.11656,421.42695 444.28837,378.75404 444.28837,326.17865 C 444.28837,308.74543 439.21623,292.41407 430.35279,278.35355 C 432.46551,270.94371 433.58669,263.14752 433.58669,255.1073 C 433.58669,249.40075 433.01218,243.82686 431.92719,238.41822 C 434.02751,238.90435 436.21334,239.15855 438.45883,239.15855 C 454.56515,239.15855 467.62783,225.9521 467.62783,209.6724 C 467.62783,193.39271 454.56515,180.16509 438.45883,180.1651 C 426.4587,180.1651 416.13127,187.50244 411.65144,197.97524 C 394.43012,178.52937 368.60111,166.16236 339.73954,166.16235 z "
           id="path4263" />
        <path
           sodipodi:type="arc"
           style="opacity:1;fill:#ffffff;fill-opacity:0.85;fill-rule:evenodd;stroke:#000000;stroke-width:3.57399988;stroke-linecap:round;stroke-linejoin:miter;stroke-miterlimit:4;stroke-dasharray:none;stroke-dashoffset:0;stroke-opacity:1"
           id="path2169"
           sodipodi:cx="-409.28571"
           sodipodi:cy="79.505043"
           sodipodi:rx="25"
           sodipodi:ry="28.571428"
           d="M -384.28571 79.505043 A 25 28.571428 0 1 1  -434.28571,79.505043 A 25 28.571428 0 1 1  -384.28571 79.505043 z"
           transform="translate(720,171.42857)" />
        <path
           sodipodi:type="arc"
           style="opacity:1;fill:#000000;fill-opacity:0.85;fill-rule:evenodd;stroke:#000000;stroke-width:3.57399988;stroke-linecap:round;stroke-linejoin:miter;stroke-miterlimit:4;stroke-dasharray:none;stroke-dashoffset:0;stroke-opacity:1"
           id="path3143"
           sodipodi:cx="-373.57144"
           sodipodi:cy="225.93361"
           sodipodi:rx="15"
           sodipodi:ry="15"
           d="M -358.57144 225.93361 A 15 15 0 1 1  -388.57144,225.93361 A 15 15 0 1 1  -358.57144 225.93361 z"
           transform="translate(684.28571,31.428572)" />
        <path
           sodipodi:type="arc"
           style="opacity:1;fill:#ffffff;fill-opacity:0.85;fill-rule:evenodd;stroke:#000000;stroke-width:3.57399988;stroke-linecap:round;stroke-linejoin:miter;stroke-miterlimit:4;stroke-dasharray:none;stroke-dashoffset:0;stroke-opacity:1"
           id="path3145"
           sodipodi:cx="-409.28571"
           sodipodi:cy="79.505043"
           sodipodi:rx="25"
           sodipodi:ry="28.571428"
           d="M -384.28571 79.505043 A 25 28.571428 0 1 1  -434.28571,79.505043 A 25 28.571428 0 1 1  -384.28571 79.505043 z"
           transform="translate(773.57142,171.42857)" />
        <path
           sodipodi:type="arc"
           style="opacity:1;fill:#000000;fill-opacity:0.85;fill-rule:evenodd;stroke:#000000;stroke-width:3.57399988;stroke-linecap:round;stroke-linejoin:miter;stroke-miterlimit:4;stroke-dasharray:none;stroke-dashoffset:0;stroke-opacity:1"
           id="path3147"
           sodipodi:cx="-373.57144"
           sodipodi:cy="225.93361"
           sodipodi:rx="15"
           sodipodi:ry="15"
           d="M -358.57144 225.93361 A 15 15 0 1 1  -388.57144,225.93361 A 15 15 0 1 1  -358.57144 225.93361 z"
           transform="translate(737.85713,31.428572)" />
        <g
           id="g4174"
           transform="translate(802.85714,157.14286)">
          <path
             d="M -438.57141 144.50504 A 22.857143 20.714285 0 1 1  -484.2857,144.50504 A 22.857143 20.714285 0 1 1  -438.57141 144.50504 z"
             sodipodi:ry="20.714285"
             sodipodi:rx="22.857143"
             sodipodi:cy="144.50504"
             sodipodi:cx="-461.42856"
             id="path4170"
             style="opacity:1;fill:#000000;fill-opacity:0.85;fill-rule:evenodd;stroke:#000000;stroke-width:3.57399988;stroke-linecap:round;stroke-linejoin:round;stroke-miterlimit:4;stroke-dasharray:none;stroke-dashoffset:0;stroke-opacity:1"
             sodipodi:type="arc" />
          <path
             transform="translate(-82.857143,-397.14286)"
             d="M -361.42858 535.2193 A 7.1428571 5.7142859 0 1 1  -375.7143,535.2193 A 7.1428571 5.7142859 0 1 1  -361.42858 535.2193 z"
             sodipodi:ry="5.7142859"
             sodipodi:rx="7.1428571"
             sodipodi:cy="535.2193"
             sodipodi:cx="-368.57144"
             id="path4172"
             style="opacity:1;fill:#e6e6e6;fill-opacity:0.85;fill-rule:evenodd;stroke:#000000;stroke-width:3.57399988;stroke-linecap:round;stroke-linejoin:round;stroke-miterlimit:4;stroke-dasharray:none;stroke-dashoffset:0;stroke-opacity:1"
             sodipodi:type="arc" />
        </g>
        <path
           sodipodi:type="arc"
           style="opacity:1;fill:none;fill-opacity:0.85;fill-rule:evenodd;stroke:#000000;stroke-width:63.12664795;stroke-linecap:round;stroke-linejoin:round;stroke-miterlimit:4;stroke-dasharray:none;stroke-dashoffset:0;stroke-opacity:1"
           id="path4251"
           sodipodi:cx="-380"
           sodipodi:cy="196.6479"
           sodipodi:rx="124.28571"
           sodipodi:ry="145.71428"
           d="M -255.71504,196.13926 A 124.28571,145.71428 0 1 1 -504.28571,196.6479"
           sodipodi:start="6.2796946"
           sodipodi:end="9.424778"
           sodipodi:open="true"
           transform="matrix(0.5001101,0,0,0.2674508,531.47041,282.9537)" />
        <rect
           style="opacity:1;fill:none;fill-opacity:0.85;fill-rule:evenodd;stroke:#000000;stroke-width:12.00000191;stroke-linecap:round;stroke-linejoin:round;stroke-miterlimit:4;stroke-dasharray:none;stroke-dashoffset:0;stroke-opacity:1"
           id="rect4253"
           width="43.545921"
           height="2.1173387"
           x="180.03899"
           y="303.45612"
           transform="matrix(0.9318126,-0.3629399,0.3629399,0.9318126,0,0)" />
        <rect
           style="opacity:1;fill:none;fill-opacity:0.85;fill-rule:evenodd;stroke:#000000;stroke-width:12.00000191;stroke-linecap:round;stroke-linejoin:round;stroke-miterlimit:4;stroke-dasharray:none;stroke-dashoffset:0;stroke-opacity:1"
           id="rect4255"
           width="43.545933"
           height="2.1173387"
           x="-448.00967"
           y="58.065292"
           transform="matrix(-0.9318126,-0.3629399,-0.3629399,0.9318126,0,0)" />
        <path
           sodipodi:type="arc"
           style="opacity:1;fill:#ffffff;fill-opacity:0.85;fill-rule:evenodd;stroke:#000000;stroke-width:1;stroke-linecap:round;stroke-linejoin:round;stroke-miterlimit:4;stroke-dasharray:none;stroke-dashoffset:0;stroke-opacity:1"
           id="path4259"
           sodipodi:cx="-544.28571"
           sodipodi:cy="83.790756"
           sodipodi:rx="5.7142859"
           sodipodi:ry="4.2857141"
           d="M -538.57142 83.790756 A 5.7142859 4.2857141 0 1 1  -549.99999,83.790756 A 5.7142859 4.2857141 0 1 1  -538.57142 83.790756 z"
           transform="matrix(0.9719005,0,0,1.7958673,896.70582,106.8851)" />
        <path
           sodipodi:type="arc"
           style="opacity:1;fill:#ffffff;fill-opacity:0.85;fill-rule:evenodd;stroke:#000000;stroke-width:1;stroke-linecap:round;stroke-linejoin:round;stroke-miterlimit:4;stroke-dasharray:none;stroke-dashoffset:0;stroke-opacity:1"
           id="path4261"
           sodipodi:cx="-544.28571"
           sodipodi:cy="83.790756"
           sodipodi:rx="5.7142859"
           sodipodi:ry="4.2857141"
           d="M -538.57142 83.790756 A 5.7142859 4.2857141 0 1 1  -549.99999,83.790756 A 5.7142859 4.2857141 0 1 1  -538.57142 83.790756 z"
           transform="matrix(0.9719005,0,0,1.7958673,836.13443,109.02796)" />
      </g>
    </g>
  </g>
</svg>
